<?xml version="1.0" standalone="no"?>
<!DOCTYPE svg PUBLIC "-//W3C//DTD SVG 1.1//EN" "http://www.w3.org/Graphics/SVG/1.1/DTD/svg11.dtd" >
<svg xmlns="http://www.w3.org/2000/svg">
<defs>
  <font id="fluentIconsFont" horiz-adv-x="1000">
    <font-face font-family="fluentIconsFont"
      units-per-em="1000" ascent="1000"
      descent="0" />
    <missing-glyph horiz-adv-x="0" />
    <glyph glyph-name="AddCircle"
      unicode="&#xEA01;"
      horiz-adv-x="1000" d="M500 916.6666666666666C730.125 916.6666666666666 916.6666666666666 730.125 916.6666666666666 500S730.125 83.3333333333334 500 83.3333333333334S83.3333333333333 269.875 83.3333333333333 500S269.875 916.6666666666666 500 916.6666666666666zM500 854.1666666666667A354.1666666666666 354.1666666666666 0 1 1 500 145.8333333333334A354.1666666666666 354.1666666666666 0 0 1 500 854.1666666666667zM500 708.3333333333334A31.25 31.25 0 0 0 531.25 677.0833333333334V531.25H677.0833333333333A31.25 31.25 0 0 0 677.0833333333333 468.75H531.25V322.9166666666668A31.25 31.25 0 0 0 468.75 322.9166666666668V468.75H322.9166666666667A31.25 31.25 0 0 0 322.9166666666667 531.25H468.75V677.0833333333334A31.25 31.25 0 0 0 500 708.3333333333334z" />
    <glyph glyph-name="ArrowCounterclockwise"
      unicode="&#xEA02;"
      horiz-adv-x="1000" d="M500 812.5A312.5 312.5 0 1 0 190.875 546.1666666666667C193.6666666666667 565.0833333333335 179.8333333333334 583.3333333333334 160.7083333333334 583.3333333333334A31.2083333333333 31.2083333333333 0 0 1 129.375 557.375A375 375 0 1 1 250 779.5V822.9166666666667A31.25 31.25 0 0 1 187.5 822.9166666666667V697.9166666666667C187.5 680.6666666666667 201.5 666.6666666666667 218.75 666.6666666666667H343.75A31.25 31.25 0 0 1 343.75 729.1666666666667H287.5A311.375 311.375 0 0 0 500 812.5z" />
    <glyph glyph-name="ArrowNext"
      unicode="&#xEA03;"
      horiz-adv-x="1000" d="M760.4166666666666 875A31.25 31.25 0 0 0 791.3749999999999 848L791.6666666666666 843.75V156.25A31.25 31.25 0 0 0 729.4583333333334 152L729.1666666666666 156.25V843.75A31.25 31.25 0 0 0 760.4166666666666 875zM217.5 865.8333333333334A31.25 31.25 0 0 0 258.1666666666667 868.875L261.6666666666667 865.8333333333334L605.4166666666666 522.0833333333333A31.25 31.25 0 0 0 608.4583333333334 481.4166666666666L605.4166666666666 477.9166666666666L261.6666666666667 134.1666666666666A31.25 31.25 0 0 0 214.4583333333334 174.8333333333333L217.5000000000001 178.3333333333333L539.1666666666666 500L217.5 821.6666666666666A31.25 31.25 0 0 0 217.5 865.8333333333334z" />
    <glyph glyph-name="ArrowPrevious"
      unicode="&#xEA04;"
      horiz-adv-x="1000" d="M239.5833333333333 875A31.25 31.25 0 0 1 208.625 848L208.3333333333333 843.75V156.25A31.25 31.25 0 0 1 270.5416666666667 152L270.8333333333333 156.25V843.75A31.25 31.25 0 0 1 239.5833333333333 875zM782.5 865.8333333333334A31.25 31.25 0 0 1 741.8333333333334 868.875L738.3333333333334 865.8333333333334L394.5833333333335 522.0833333333333A31.25 31.25 0 0 1 391.5416666666668 481.4166666666666L394.5833333333335 477.9166666666666L738.3333333333334 134.1666666666666A31.25 31.25 0 0 1 785.5416666666667 174.8333333333333L782.5 178.3333333333333L460.8333333333333 500L782.5 821.6666666666666A31.25 31.25 0 0 1 782.5 865.8333333333334z" />
    <glyph glyph-name="ArrowRedo"
      unicode="&#xEA05;"
      horiz-adv-x="1000" d="M802.0833333333333 916.6666666666666A31.25 31.25 0 0 1 771.125 889.6666666666666L770.8333333333333 885.4166666666666V648.3333333333333L580.25 838.3333333333333A267.0833333333333 267.0833333333333 0 0 1 210.3333333333333 845.7916666666666L202.5833333333333 838.2916666666666A267.0833333333333 267.0833333333333 0 0 1 202.5833333333333 460.6666666666666L571.125 92.3333333333333A31.25 31.25 0 0 1 615.2916666666666 136.5833333333334L246.75 504.8333333333333A204.5833333333333 204.5833333333333 0 0 0 528.6666666666666 801.1666666666666L536.0833333333334 794.0833333333333L726.5833333333333 604.1666666666667H489.5833333333333A31.25 31.25 0 0 1 458.6249999999999 577.1666666666667L458.3333333333333 572.9166666666667C458.3333333333333 557.0833333333333 470.0833333333333 544 485.3333333333333 541.9583333333334L489.5833333333333 541.6666666666667H802.0833333333333A31.25 31.25 0 0 1 833.0416666666665 568.6666666666667L833.3333333333333 572.9166666666667V885.4166666666666A31.25 31.25 0 0 1 802.0833333333333 916.6666666666666z" />
    <glyph glyph-name="ArrowUndo"
      unicode="&#xEA06;"
      horiz-adv-x="1000" d="M197.9166666666667 916.6666666666666A31.25 31.25 0 0 0 228.875 889.6666666666666L229.1666666666667 885.4166666666666V648.3333333333333L419.75 838.3333333333333A267.0833333333333 267.0833333333333 0 0 0 789.7083333333333 845.7916666666666L797.4583333333333 838.2916666666666A267.0833333333333 267.0833333333333 0 0 0 797.4583333333333 460.6666666666666L428.875 92.3333333333333A31.25 31.25 0 0 0 384.7083333333333 136.5833333333334L753.2499999999999 504.8333333333333A204.5833333333333 204.5833333333333 0 0 1 471.3333333333333 801.1666666666666L463.9166666666666 794.0833333333333L273.4166666666667 604.1666666666667H510.4166666666666A31.25 31.25 0 0 0 541.375 577.1666666666667L541.6666666666666 572.9166666666667A31.25 31.25 0 0 0 514.6666666666666 541.9583333333334L510.4166666666666 541.6666666666667H197.9166666666667A31.25 31.25 0 0 0 166.9583333333333 568.6666666666667L166.6666666666667 572.9166666666667V885.4166666666666A31.25 31.25 0 0 0 197.9166666666667 916.6666666666666z" />
    <glyph glyph-name="ArrowUpload"
      unicode="&#xEA07;"
      horiz-adv-x="1000" d="M760.4166666666666 853.7916666666667A31.25 31.25 0 1 1 760.4166666666666 916.2916666666666L218.75 916.4583333333334A31.25 31.25 0 1 1 218.75 853.9583333333334L760.4166666666666 853.7916666666667zM485.3333333333333 83.4583333333334L489.5833333333333 83.1666666666666A31.25 31.25 0 0 1 520.5416666666666 110.2083333333334L520.8333333333333 114.4166666666666L520.7916666666666 684.625L675.875 529.625A31.25 31.25 0 0 1 716.5416666666666 526.625L720.0833333333333 529.625A31.25 31.25 0 0 1 723.0833333333333 570.3333333333333L720.0416666666666 573.8333333333333L511.8333333333333 782A31.25 31.25 0 0 1 471.1666666666666 785.0416666666666L467.6249999999999 782.0416666666666L259.1666666666667 573.8333333333333A31.25 31.25 0 0 1 299.8333333333333 526.5833333333333L303.3333333333333 529.625L458.2916666666666 684.3333333333333L458.3333333333333 114.4166666666666C458.3333333333333 98.5833333333334 470.0833333333333 85.5416666666666 485.3333333333333 83.4583333333334z" />
    <glyph glyph-name="BoardSplit"
      unicode="&#xEA08;"
      horiz-adv-x="1000" d="M125 739.5833333333334A135.4166666666667 135.4166666666667 0 0 0 260.4166666666667 875H739.5833333333333A135.4166666666667 135.4166666666667 0 0 0 875 739.5833333333334V260.4166666666668A135.4166666666667 135.4166666666667 0 0 0 739.5833333333333 125H260.4166666666667A135.4166666666667 135.4166666666667 0 0 0 125 260.4166666666668V739.5833333333334zM187.5 479.1666666666667V260.4166666666668C187.5 220.1666666666666 220.1666666666667 187.5 260.4166666666667 187.5H583.3333333333333V479.1666666666667H187.5zM583.3333333333333 541.6666666666667V812.5H260.4166666666667A72.9166666666667 72.9166666666667 0 0 1 187.5 739.5833333333334V541.6666666666667H583.3333333333333zM812.5 604.1666666666667H645.8333333333333V395.8333333333334H812.5V604.1666666666667zM812.5 333.3333333333334H645.8333333333333V187.5H739.5833333333333A72.9166666666667 72.9166666666667 0 0 1 812.5 260.4166666666668V333.3333333333334zM812.5 666.6666666666667V739.5833333333334A72.9166666666667 72.9166666666667 0 0 1 739.5833333333333 812.5H645.8333333333333V666.6666666666667H812.5z" />
    <glyph glyph-name="BroadActivityFeed"
      unicode="&#xEA09;"
      horiz-adv-x="1000" d="M385.625 416.4583333333334C425.875 416.4583333333334 458.5416666666667 383.8333333333334 458.5416666666667 343.5416666666667V197.7916666666668A72.9166666666667 72.9166666666667 0 0 0 385.625 124.875H156.25A72.9166666666667 72.9166666666667 0 0 0 83.3333333333333 197.7916666666668V343.5416666666668C83.3333333333333 383.8333333333335 116 416.4583333333334 156.25 416.4583333333334H385.625zM843.75 416.4583333333334C884 416.4583333333334 916.6666666666666 383.8333333333334 916.6666666666666 343.5416666666667V197.7916666666668A72.9166666666667 72.9166666666667 0 0 0 843.75 124.875H614.375A72.9166666666667 72.9166666666667 0 0 0 541.4583333333334 197.7916666666668V343.5416666666668C541.4583333333334 383.8333333333335 574.125 416.4583333333334 614.375 416.4583333333334H843.75zM385.625 353.9583333333334H156.25A10.4166666666667 10.4166666666667 0 0 1 145.8333333333333 343.5416666666667V197.7916666666668C145.8333333333333 192.0000000000001 150.5 187.375 156.25 187.375H385.625A10.4166666666667 10.4166666666667 0 0 1 396.0416666666667 197.7916666666668V343.5416666666668A10.4166666666667 10.4166666666667 0 0 1 385.625 353.9583333333334zM843.75 353.9583333333334H614.375A10.4166666666667 10.4166666666667 0 0 1 603.9583333333334 343.5416666666667V197.7916666666668C603.9583333333334 192.0000000000001 608.625 187.375 614.375 187.375H843.75A10.4166666666667 10.4166666666667 0 0 1 854.1666666666666 197.7916666666668V343.5416666666668A10.4166666666667 10.4166666666667 0 0 1 843.75 353.9583333333334zM843.75 875C884 875 916.6666666666666 842.3333333333334 916.6666666666666 802.0833333333334V572.9166666666667A72.9166666666667 72.9166666666667 0 0 0 843.75 500H156.25A72.9166666666667 72.9166666666667 0 0 0 83.3333333333333 572.9166666666667V802.0833333333334A72.9166666666667 72.9166666666667 0 0 0 150.25 874.75L156.25 875H843.75zM843.75 812.5H156.25L153.875 812.2083333333334A10.4166666666667 10.4166666666667 0 0 1 145.8333333333333 802.0833333333334V572.9166666666667C145.8333333333333 567.1666666666667 150.5 562.5 156.25 562.5H843.75A10.4166666666667 10.4166666666667 0 0 1 854.1666666666666 572.9166666666667V802.0833333333334A10.4166666666667 10.4166666666667 0 0 1 843.75 812.5z" />
    <glyph glyph-name="CalendarClock"
      unicode="&#xEA0A;"
      horiz-adv-x="1000" d="M875 739.5833333333334A135.4166666666667 135.4166666666667 0 0 1 739.5833333333333 875H260.4166666666667A135.4166666666667 135.4166666666667 0 0 1 125 739.5833333333334V260.4166666666668A135.4166666666667 135.4166666666667 0 0 1 260.4166666666667 125H500.9166666666666A269.625 269.625 0 0 0 471.375 187.5H260.4166666666667A72.9166666666667 72.9166666666667 0 0 0 187.5 260.4166666666668V645.8333333333334H812.5V528.625A269.625 269.625 0 0 0 875 499.0833333333334V739.5833333333334zM260.4166666666667 812.5H739.5833333333333C779.8333333333334 812.5 812.5 779.8333333333334 812.5 739.5833333333334V708.3333333333334H187.5V739.5833333333334C187.5 779.8333333333334 220.1666666666667 812.5 260.4166666666667 812.5zM958.3333333333331 270.8333333333334A229.1666666666667 229.1666666666667 0 1 1 500 270.8333333333334A229.1666666666667 229.1666666666667 0 0 1 958.3333333333331 270.8333333333334zM729.1666666666666 270.8333333333334H812.5A20.8333333333333 20.8333333333333 0 0 0 812.5 229.1666666666668H708.3333333333333A20.8333333333333 20.8333333333333 0 0 0 687.5 249.625V375.0416666666667A20.8333333333333 20.8333333333333 0 0 0 729.1666666666666 375.0416666666667V270.8333333333334z" />
    <glyph glyph-name="ClipboardPaste"
      unicode="&#xEA0B;"
      horiz-adv-x="1000" d="M531.375 916.6666666666666C579.625 916.6666666666666 619.3333333333334 880.2083333333334 624.4583333333333 833.3333333333334H697.9166666666666A93.75 93.75 0 0 0 791.4583333333334 746L791.6666666666666 739.5833333333334A31.25 31.25 0 0 0 764.7083333333334 708.6666666666667L760.3749999999999 708.3333333333334A31.25 31.25 0 0 0 729.4583333333333 735.2916666666667L729.1666666666666 739.5833333333334A31.25 31.25 0 0 1 702.1666666666666 770.5416666666667L697.9166666666666 770.8333333333334H609.0833333333333A93.5 93.5 0 0 0 531.375 729.4583333333333H385.2916666666667C352.9166666666667 729.4583333333333 324.4166666666667 745.8333333333333 307.5833333333333 770.7916666666666L218.75 770.8333333333334A31.25 31.25 0 0 1 187.7916666666666 743.8333333333334L187.5 739.5833333333334V176.8749999999999C187.5 161.0416666666666 199.25 147.9999999999999 214.5 145.9166666666666L218.75 145.6249999999999H343.75A31.25 31.25 0 0 0 374.7083333333333 118.6666666666666L375 114.4166666666666A31.25 31.25 0 0 0 343.75 83.1666666666666H218.75A93.75 93.75 0 0 0 125.2083333333333 170.4583333333333L125 176.8750000000001V739.5833333333334A93.75 93.75 0 0 0 212.3333333333333 833.125L218.75 833.3333333333334H292.2083333333333A93.625 93.625 0 0 0 385.2916666666667 916.6666666666666H531.375zM781.25 666.6666666666667A93.75 93.75 0 0 0 874.7916666666666 579.3333333333334L875 572.9166666666667V177.0833333333334A93.75 93.75 0 0 0 787.6666666666666 83.5416666666666L781.25 83.3333333333334H510.4166666666666A93.75 93.75 0 0 0 416.875 170.6666666666668L416.6666666666667 177.0833333333334V572.9166666666667A93.75 93.75 0 0 0 504 666.4583333333334L510.4166666666666 666.6666666666667H781.25zM781.25 604.1666666666667H510.4166666666666A31.25 31.25 0 0 1 479.4583333333333 577.1666666666667L479.1666666666666 572.9166666666667V177.0833333333334C479.1666666666666 161.2500000000001 490.9166666666666 148.1666666666668 506.1666666666666 146.1250000000001L510.4166666666666 145.8333333333334H781.25A31.25 31.25 0 0 1 812.2083333333333 172.8333333333334L812.5 177.0833333333334V572.9166666666667A31.25 31.25 0 0 1 785.5 603.875L781.25 604.1666666666667zM531.375 854.1666666666667H385.2916666666667A31.125 31.125 0 0 1 385.2916666666667 791.9583333333334H531.375A31.125 31.125 0 1 1 531.375 854.1666666666667z" />
    <glyph glyph-name="ColumnTriple"
      unicode="&#xEA0C;"
      horiz-adv-x="1000" d="M259.875 875C300.1666666666667 875 332.7916666666667 842.3333333333334 332.7916666666667 802.0833333333334V197.9166666666668A72.9166666666667 72.9166666666667 0 0 0 259.875 125H155.7083333333334A72.9166666666667 72.9166666666667 0 0 0 82.7916666666667 197.9166666666668V802.0833333333334A72.9166666666667 72.9166666666667 0 0 0 149.75 874.7083333333334L155.7083333333334 875H259.875zM844.2916666666665 875C884.5833333333331 875 917.2083333333331 842.3333333333334 917.2083333333331 802.0833333333334V197.9166666666668A72.9166666666667 72.9166666666667 0 0 0 844.2916666666665 125H740.1249999999999A72.9166666666667 72.9166666666667 0 0 0 667.2083333333333 197.9166666666668V802.0833333333334C667.2083333333333 842.3333333333334 699.8749999999999 875 740.1249999999999 875H844.2916666666665zM551.5416666666665 875C591.8333333333333 875 624.4583333333333 842.3333333333334 624.4583333333333 802.0833333333334V197.9166666666668A72.9166666666667 72.9166666666667 0 0 0 551.5416666666665 125H447.3749999999999A72.9166666666667 72.9166666666667 0 0 0 374.4583333333333 197.9166666666668V802.0833333333334C374.4583333333333 842.3333333333334 407.125 875 447.3749999999999 875H551.5416666666665zM259.875 812.5H155.7083333333333L153.3333333333333 812.2083333333334A10.4166666666667 10.4166666666667 0 0 1 145.2916666666666 802.0416666666667V197.8750000000001C145.2916666666666 192.1250000000001 149.9583333333333 187.4583333333335 155.7083333333333 187.4583333333335H259.875A10.4166666666667 10.4166666666667 0 0 1 270.2916666666666 197.8750000000001V802.0833333333334A10.4166666666667 10.4166666666667 0 0 1 259.875 812.5zM844.2916666666665 812.5H740.1249999999999A10.4166666666667 10.4166666666667 0 0 1 729.7083333333333 802.0833333333334V197.9166666666668C729.7083333333333 192.1250000000001 734.3749999999998 187.5 740.1249999999999 187.5H844.2916666666665A10.4166666666667 10.4166666666667 0 0 1 854.7083333333333 197.9166666666668V802.0833333333334A10.4166666666667 10.4166666666667 0 0 1 844.2916666666665 812.5zM551.5416666666665 812.5H447.3749999999999A10.4166666666667 10.4166666666667 0 0 1 436.9583333333333 802.0833333333334V197.9166666666668C436.9583333333333 192.1666666666666 441.6249999999999 187.5 447.3749999999999 187.5H551.5416666666665A10.4166666666667 10.4166666666667 0 0 1 561.9583333333333 197.9166666666668V802.0833333333334A10.4166666666667 10.4166666666667 0 0 1 551.5416666666665 812.5z" />
    <glyph glyph-name="Copy"
      unicode="&#xEA0D;"
      horiz-adv-x="1000" d="M229.2916666666667 807.2083333333334L229.1666666666667 718.75V281.0833333333335A135.4166666666667 135.4166666666667 0 0 1 364.5833333333333 145.6666666666669H723.5833333333333A93.7916666666667 93.7916666666667 0 0 0 635.1666666666666 83.1666666666669H364.5833333333333A197.9166666666667 197.9166666666667 0 0 0 166.6666666666667 281.0833333333334V718.75C166.6666666666667 759.5833333333334 192.7916666666667 794.375 229.2916666666667 807.2083333333334zM739.5833333333333 916.6666666666666A93.75 93.75 0 0 0 833.3333333333333 822.9166666666667V281.25A93.75 93.75 0 0 0 739.5833333333333 187.5H364.5833333333333A93.75 93.75 0 0 0 270.8333333333333 281.25V822.9166666666667A93.75 93.75 0 0 0 364.5833333333333 916.6666666666666H739.5833333333333zM739.5833333333333 854.1666666666667H364.5833333333333A31.25 31.25 0 0 1 333.3333333333333 822.9166666666667V281.25C333.3333333333333 264 347.3333333333333 250 364.5833333333333 250H739.5833333333333A31.25 31.25 0 0 1 770.8333333333333 281.25V822.9166666666667A31.25 31.25 0 0 1 739.5833333333333 854.1666666666667z" />
    <glyph glyph-name="Cut"
      unicode="&#xEA0E;"
      horiz-adv-x="1000" d="M505.8333333333333 610.7916666666667V610.7083333333334L307.0833333333333 903A31.25 31.25 0 1 1 255.4166666666667 867.8333333333334L469.1666666666666 553.4583333333335L369.375 397.5000000000001A166.6666666666667 166.6666666666667 0 1 1 418.4583333333333 358.2083333333334L507.4166666666666 497.2500000000001L593.4583333333333 370.7500000000001A166.6666666666667 166.6666666666667 0 1 1 645.9999999999999 404.6250000000001L544.0416666666666 554.5000000000001L544.1249999999999 554.5833333333335L505.875 610.7500000000002zM187.5 249.9583333333335A104.1666666666667 104.1666666666667 0 1 0 395.8333333333333 249.9583333333335A104.1666666666667 104.1666666666667 0 0 0 187.5 249.9583333333335zM604.1666666666666 249.9583333333335A104.1666666666667 104.1666666666667 0 1 0 812.5 249.9583333333335A104.1666666666667 104.1666666666667 0 0 0 604.1666666666666 249.9583333333335zM580.75 611.8333333333333L745.0416666666666 868.5833333333333A31.25 31.25 0 1 1 692.4166666666667 902.25L542.5 668L580.7499999999999 611.8333333333333z" />
    <glyph glyph-name="Dismiss"
      unicode="&#xEA0F;"
      horiz-adv-x="1000" d="M183.2083333333334 810.25L186.25 813.75A31.25 31.25 0 0 0 226.9166666666667 816.7916666666666L230.4166666666667 813.75L500 544.2083333333334L769.5833333333333 813.7916666666666A31.25 31.25 0 1 0 813.7499999999999 769.5833333333334L544.2083333333333 500L813.7916666666665 230.4166666666668A31.25 31.25 0 0 0 816.7916666666665 189.7500000000001L813.7499999999999 186.2500000000001A31.25 31.25 0 0 0 773.0833333333333 183.2083333333335L769.5833333333333 186.2500000000001L500 455.7916666666667L230.4166666666667 186.2083333333335A31.25 31.25 0 0 0 186.25 230.4166666666668L455.7916666666666 500L186.2083333333334 769.5833333333334A31.25 31.25 0 0 0 183.2083333333334 810.25L186.25 813.75L183.2083333333334 810.25z" />
    <glyph glyph-name="DocumentAdd"
      unicode="&#xEA10;"
      horiz-adv-x="1000" d="M770.8333333333333 166.6666666666668A20.8333333333333 20.8333333333333 0 0 0 750 145.8333333333334H511.1666666666667A271.5833333333333 271.5833333333333 0 0 0 466.2499999999999 83.3333333333334H750A83.3333333333333 83.3333333333333 0 0 1 833.3333333333333 166.6666666666668V590.5A83.3333333333333 83.3333333333333 0 0 1 808.9166666666666 649.4166666666667L566.0416666666666 892.25A20.4583333333333 20.4583333333333 0 0 1 564 893.9166666666667A26.25 26.25 0 0 0 562.5 895.1666666666667A86.3333333333333 86.3333333333333 0 0 1 553.3750000000001 902.6666666666669A27.1666666666667 27.1666666666667 0 0 1 550.0416666666667 904.5L548.0416666666667 905.5L545.9583333333334 906.7083333333334C543.7083333333334 908 541.4166666666667 909.3333333333334 539.0416666666666 910.3333333333334A82.375 82.375 0 0 1 513.0416666666666 916.0833333333334C512.2083333333334 916.125 511.3750000000001 916.25 510.5833333333334 916.375A25.2083333333333 25.2083333333333 0 0 1 507.1666666666667 916.6666666666666H250A83.3333333333333 83.3333333333333 0 0 1 166.6666666666667 833.3333333333334V520.9166666666666A268.7916666666667 268.7916666666667 0 0 0 229.1666666666667 538.5V833.3333333333334A20.8333333333333 20.8333333333333 0 0 0 250 854.1666666666667H500V666.6666666666667A83.3333333333333 83.3333333333333 0 0 1 583.3333333333333 583.3333333333334H770.8333333333333V166.6666666666668zM562.5 807.4583333333333L724.0833333333333 645.8333333333334H583.3333333333333A20.8333333333333 20.8333333333333 0 0 0 562.5 666.6666666666667V807.4583333333333zM500 270.8333333333334A229.1666666666667 229.1666666666667 0 1 1 41.6666666666667 270.8333333333334A229.1666666666667 229.1666666666667 0 0 1 500 270.8333333333334zM291.6666666666667 250L291.7083333333333 145.7083333333334A20.8333333333333 20.8333333333333 0 1 0 250.0416666666667 145.7083333333334V250H145.6666666666667A20.8333333333333 20.8333333333333 0 0 0 145.6666666666667 291.6666666666668H250V395.8333333333334A20.8333333333333 20.8333333333333 0 1 0 291.6666666666667 395.8333333333334V291.6666666666668H395.7083333333333A20.8333333333333 20.8333333333333 0 0 0 395.7083333333333 250H291.6666666666667z" />
    <glyph glyph-name="DocumentError"
      unicode="&#xEA11;"
      horiz-adv-x="1000" d="M770.8333333333333 166.6666666666668A20.8333333333333 20.8333333333333 0 0 0 750 145.8333333333334H511.1666666666667A271.5833333333333 271.5833333333333 0 0 0 466.2499999999999 83.3333333333334H750A83.3333333333333 83.3333333333333 0 0 1 833.3333333333333 166.6666666666668V590.5A83.3333333333333 83.3333333333333 0 0 1 808.9166666666666 649.4166666666667L566.0416666666666 892.25A20.4583333333333 20.4583333333333 0 0 1 564 893.9166666666667A26.25 26.25 0 0 0 562.5 895.1666666666667A86.3333333333333 86.3333333333333 0 0 1 553.3750000000001 902.6666666666669A27.1666666666667 27.1666666666667 0 0 1 550.0416666666667 904.5L548.0416666666667 905.5L545.9583333333334 906.7083333333334C543.7083333333334 908 541.4166666666667 909.3333333333334 539.0416666666666 910.3333333333334A82.375 82.375 0 0 1 513.0416666666666 916.0833333333334C512.2083333333334 916.125 511.3750000000001 916.25 510.5833333333334 916.375A25.2083333333333 25.2083333333333 0 0 1 507.1666666666667 916.6666666666666H250A83.3333333333333 83.3333333333333 0 0 1 166.6666666666667 833.3333333333334V520.9166666666666A268.7916666666667 268.7916666666667 0 0 0 229.1666666666667 538.5V833.3333333333334A20.8333333333333 20.8333333333333 0 0 0 250 854.1666666666667H500V666.6666666666667A83.3333333333333 83.3333333333333 0 0 1 583.3333333333333 583.3333333333334H770.8333333333333V166.6666666666668zM562.5 807.4583333333333L724.0833333333333 645.8333333333334H583.3333333333333A20.8333333333333 20.8333333333333 0 0 0 562.5 666.6666666666667V807.4583333333333zM500 270.8333333333334A229.1666666666667 229.1666666666667 0 1 0 41.6666666666667 270.8333333333334A229.1666666666667 229.1666666666667 0 0 0 500 270.8333333333334zM270.8333333333333 416.6666666666668A20.8333333333333 20.8333333333333 0 0 1 250 395.8333333333334V229.1666666666668A20.8333333333333 20.8333333333333 0 0 1 291.6666666666667 229.1666666666668V395.8333333333334A20.8333333333333 20.8333333333333 0 0 1 270.8333333333333 416.6666666666668zM270.8333333333333 119.7916666666668A26.0416666666667 26.0416666666667 0 1 1 270.8333333333333 171.875A26.0416666666667 26.0416666666667 0 0 1 270.8333333333333 119.7916666666668z" />
    <glyph glyph-name="DocumentHeaderRemove"
      unicode="&#xEA12;"
      horiz-adv-x="1000" d="M832.9166666666665 829.5A93.75 93.75 0 0 1 739.3749999999999 916.8333333333334H260.2083333333332L253.7916666666666 916.625A93.75 93.75 0 0 1 166.4583333333332 823.0833333333334V177.3333333333334L166.6666666666666 170.9166666666668A93.75 93.75 0 0 1 260.2083333333332 83.5833333333334H533.4999999999999A271.75 271.75 0 0 0 488.7083333333333 146.0833333333334H260.2083333333333L255.9583333333333 146.3750000000001A31.25 31.25 0 0 0 228.9583333333333 177.3333333333334V823.0833333333333L229.25 827.3333333333334A31.25 31.25 0 0 0 260.2083333333333 854.3333333333334H739.375L743.625 854.0416666666666A31.25 31.25 0 0 0 770.625 823.0833333333333V538.5C792.4166666666666 535.1666666666667 813.375 529.2083333333333 833.125 521V823.0833333333333L832.9166666666667 829.5zM597.0416666666666 83.5833333333334A229.1666666666667 229.1666666666667 0 1 1 861.3333333333333 458.0833333333334A229.1666666666667 229.1666666666667 0 0 1 596.9999999999999 83.5833333333334zM729.2083333333334 300.25L803 374A20.8333333333333 20.8333333333333 0 1 0 832.5 344.5L758.6666666666667 270.7499999999999L832.375 197.0833333333333A20.8333333333333 20.8333333333333 0 1 0 802.9166666666666 167.6249999999999L729.1666666666666 241.3333333333332L655.5833333333333 167.7083333333332A20.8333333333333 20.8333333333333 0 1 0 626.1249999999999 197.1666666666665L699.7083333333333 270.7916666666665L625.9999999999999 344.5416666666665A20.8333333333333 20.8333333333333 0 0 0 655.4583333333333 373.9999999999999L729.2083333333334 300.2499999999999zM291.6666666666667 718.75C291.6666666666667 759 324.3333333333333 791.6666666666667 364.5833333333333 791.6666666666667H635.4166666666666C675.7083333333333 791.6666666666667 708.3333333333333 759 708.3333333333333 718.75V656.25A72.9166666666667 72.9166666666667 0 0 0 635.4166666666666 583.3333333333334H364.5833333333333A72.9166666666667 72.9166666666667 0 0 0 291.6666666666667 656.25V718.75zM364.5833333333333 729.1666666666667A10.4166666666667 10.4166666666667 0 0 1 354.1666666666667 718.75V656.25C354.1666666666667 650.5 358.8333333333333 645.8333333333334 364.5833333333333 645.8333333333334H635.4166666666666A10.4166666666667 10.4166666666667 0 0 1 645.8333333333333 656.25V718.75A10.4166666666667 10.4166666666667 0 0 1 635.4166666666666 729.1666666666667H364.5833333333333z" />
    <glyph glyph-name="DocumentSearch"
      unicode="&#xEA13;"
      horiz-adv-x="1000" d="M475.375 543.9166666666667A205.2916666666666 205.2916666666666 0 0 0 497.8750000000001 280.3333333333335L492.0000000000001 272.4166666666668L667.7083333333334 96.6666666666667L670.8333333333334 93.0416666666667A32.2083333333333 32.2083333333333 0 0 0 625.7916666666667 48.0000000000001L622.1666666666667 51.1250000000001L444.7916666666668 228.4583333333334A205.2916666666666 205.2916666666666 0 0 0 185.1250000000001 543.875A205.25 205.25 0 0 0 475.3750000000001 543.875zM547.0416666666666 916.6666666666666A93.75 93.75 0 0 0 613.2916666666666 889.2083333333334L730.4583333333333 772.125L847.4583333333333 654.9583333333335C864.9999999999999 637.375 874.875 613.5416666666667 874.875 588.7083333333335V177.0833333333334A93.75 93.75 0 0 0 781.125 83.3333333333334H718.2083333333333A73.5416666666667 73.5416666666667 0 0 1 704.2916666666666 117.9166666666666L699.2916666666665 123.875L677.3333333333331 145.875L781.083333333333 145.8333333333333A31.25 31.25 0 0 1 812.333333333333 177.0833333333333V583.2083333333333H635.4166666666666A93.75 93.75 0 0 0 541.8749999999999 670.4999999999999L541.6666666666666 676.9166666666667V854.1666666666667H302.0833333333333A31.25 31.25 0 0 1 270.8333333333333 822.9166666666667V638.7083333333334A245.5833333333333 245.5833333333333 0 0 1 208.2916666666667 614.4583333333334L208.3333333333333 822.9166666666667A93.75 93.75 0 0 0 302.0833333333333 916.6666666666666H547.0416666666666zM230.6666666666667 498.3333333333334A140.8333333333333 140.8333333333333 0 1 1 429.8333333333333 299.2083333333334A140.8333333333333 140.8333333333333 0 0 1 230.6666666666666 498.3750000000001zM604.1666666666666 810V676.9166666666667C604.1666666666666 661.0833333333333 615.9166666666666 648.0416666666667 631.1666666666666 645.9583333333334L635.4166666666666 645.6666666666667L768.3749999999999 645.7083333333334L604.1666666666666 810z" />
    <glyph glyph-name="DualScreenGroup"
      unicode="&#xEA14;"
      horiz-adv-x="1000" d="M531.4583333333334 833.2916666666666V833.2083333333334H843.875C884.125 833.2083333333334 916.7916666666666 800.5416666666667 916.7916666666666 760.2916666666667V239.6666666666669A72.9166666666667 72.9166666666667 0 0 0 843.875 166.7500000000001H468.9583333333333V166.8333333333335H156.5A72.9166666666667 72.9166666666667 0 0 0 83.5833333333333 239.7500000000001V760.375C83.5833333333333 800.6666666666666 116.25 833.2916666666666 156.5 833.2916666666666H531.4166666666666zM843.875 770.7083333333334H531.4583333333333V229.2500000000001H843.875A10.4166666666667 10.4166666666667 0 0 1 854.2916666666666 239.6666666666669V760.25A10.4166666666667 10.4166666666667 0 0 1 843.875 770.6666666666667zM468.9583333333333 770.7916666666666H156.5416666666667A10.4166666666667 10.4166666666667 0 0 1 146.125 760.375V239.7500000000001C146.125 234 150.7916666666667 229.3333333333335 156.5416666666667 229.3333333333335H468.9583333333333V770.7916666666666z" />
    <glyph glyph-name="EditSettings"
      unicode="&#xEA15;"
      horiz-adv-x="1000" d="M876.2916666666665 876.25A149.125 149.125 0 0 0 876.2916666666665 665.4166666666667L751.6249999999999 540.7500000000001A273.5416666666667 273.5416666666667 0 0 1 653.3749999999999 530.9166666666667L747.5 625L625.0416666666666 747.5L210.9583333333333 333.3333333333334A31.25 31.25 0 0 1 202.9166666666667 319.5L159.1666666666667 159.0833333333333L319.5833333333333 202.8333333333334A31.25 31.25 0 0 1 333.4166666666667 210.875L469.125 346.5833333333334A270.875 270.875 0 0 1 459.2916666666666 248.375L377.625 166.7083333333333A93.75 93.75 0 0 0 335.9583333333333 142.5416666666668L122.8333333333333 84.4166666666667A31.25 31.25 0 0 0 84.4999999999999 122.7500000000001L142.5833333333333 335.9166666666668A93.75 93.75 0 0 0 166.75 377.5833333333334L665.4166666666666 876.25A149.0833333333333 149.0833333333333 0 0 0 876.2916666666665 876.25zM709.6249999999999 832.0833333333334L669.2083333333333 791.6666666666667L791.6666666666666 669.1666666666667L832.0833333333333 709.5833333333333A86.5833333333333 86.5833333333333 0 1 1 709.6249999999999 832.0833333333333zM594.9583333333333 417.7083333333333A83.3333333333333 83.3333333333333 0 0 0 534.9166666666666 313.6666666666667L510.5833333333333 307.6666666666668A238.7083333333333 238.7083333333333 0 0 1 510.8333333333333 232.3750000000001L533.3333333333334 226.9583333333335A83.3333333333333 83.3333333333333 0 0 0 593.75 122.3750000000002L585.9583333333334 96.0416666666669C604.2916666666666 79.9583333333336 625.125 66.9166666666667 647.7916666666666 57.6666666666669L668.375 79.2500000000002A83.3333333333333 83.3333333333333 0 0 0 789.1666666666666 79.2500000000002L809.9166666666667 57.3750000000003A220 220 0 0 1 871.7083333333334 95.416666666667L863.4583333333334 124.0000000000004A83.3333333333333 83.3333333333333 0 0 0 923.5416666666669 228.0000000000003L947.8333333333334 234.0000000000003A238.7083333333333 238.7083333333333 0 0 1 947.5833333333334 309.3333333333335L925.0833333333334 314.7500000000001A83.3333333333333 83.3333333333333 0 0 0 864.6666666666667 419.3333333333335L872.4583333333335 445.5833333333335A220 220 0 0 1 810.6250000000002 484.0416666666669L790.0833333333336 462.4166666666669A83.3333333333333 83.3333333333333 0 0 0 669.2500000000003 462.4166666666669L648.5000000000003 484.2916666666669C625.8333333333336 475.1250000000001 605.0000000000003 462.2083333333335 586.7083333333336 446.2916666666668L594.9583333333337 417.7083333333335zM729.2083333333334 208.3333333333334C695.875 208.3333333333334 668.7916666666667 236.3333333333334 668.7916666666667 270.8333333333334C668.7916666666667 305.3750000000001 695.875 333.3333333333334 729.2083333333334 333.3333333333334C762.5416666666667 333.3333333333334 789.625 305.3750000000001 789.625 270.8333333333334C789.625 236.3333333333334 762.5416666666667 208.3333333333334 729.2083333333334 208.3333333333334z" />
    <glyph glyph-name="Filter"
      unicode="&#xEA16;"
      horiz-adv-x="1000" d="M562.5 333.3333333333334A31.25 31.25 0 0 0 562.5 270.8333333333334H437.5A31.25 31.25 0 0 0 437.5 333.3333333333334H562.5zM687.5 541.6666666666667A31.25 31.25 0 0 0 687.5 479.1666666666667H312.5A31.25 31.25 0 0 0 312.5 541.6666666666667H687.5zM812.5 750A31.25 31.25 0 0 0 812.5 687.5H187.5A31.25 31.25 0 0 0 187.5 750H812.5z" />
    <glyph glyph-name="FolderOpen"
      unicode="&#xEA17;"
      horiz-adv-x="1000" d="M833.3333333333333 604.0833333333333V635.4166666666667A93.75 93.75 0 0 1 739.5833333333333 729.1666666666667H501.0416666666666L401.875 811.6666666666667A93.75 93.75 0 0 1 341.8333333333333 833.3333333333334H177.0833333333333A93.75 93.75 0 0 1 83.3333333333333 739.5833333333334L83.1666666666667 260.4166666666668A93.75 93.75 0 0 1 176.9166666666667 166.6666666666668H769.5833333333333A72.9166666666667 72.9166666666667 0 0 1 840.3333333333333 221.875L913.2499999999998 513.4583333333334A72.9166666666667 72.9166666666667 0 0 1 842.4999999999999 604.0833333333335H833.3333333333333zM177.0833333333333 770.8333333333334H341.9166666666667A31.25 31.25 0 0 0 361.9166666666667 763.625L469.75 673.875A31.25 31.25 0 0 1 489.75 666.6666666666667H739.5833333333333A31.25 31.25 0 0 0 770.8333333333333 635.4166666666667V604.0833333333333H267.6666666666667A93.75 93.75 0 0 1 176.7083333333334 533.0833333333333L145.7083333333334 409L145.8333333333333 739.5833333333334A31.25 31.25 0 0 0 177.0833333333333 770.8333333333334zM237.375 517.9166666666667A31.25 31.25 0 0 0 267.6666666666667 541.5833333333333H842.4999999999999A10.4166666666667 10.4166666666667 0 0 0 852.5833333333333 528.6666666666666L779.6666666666666 237.0416666666668A10.4166666666667 10.4166666666667 0 0 0 769.5833333333333 229.1666666666668H178.5416666666667A10.4166666666667 10.4166666666667 0 0 0 168.4166666666667 242.0833333333334L237.375 517.9166666666667z" />
    <glyph glyph-name="Info"
      unicode="&#xEA18;"
      horiz-adv-x="1000" d="M500 916.7083333333334C730.1666666666666 916.7083333333334 916.75 730.125 916.75 499.9583333333333C916.75 269.8333333333334 730.1666666666666 83.25 500.0000000000001 83.25C269.8333333333334 83.25 83.25 269.8333333333334 83.25 499.9583333333333C83.25 730.125 269.8333333333333 916.7083333333334 500 916.7083333333334zM500 854.2083333333334A354.25 354.25 0 1 1 500 145.7500000000001A354.25 354.25 0 0 1 500 854.1666666666667zM499.8333333333333 562.5416666666667A31.25 31.25 0 0 0 530.8333333333333 535.5416666666667L531.125 531.2916666666667L531.25 302.0416666666667A31.25 31.25 0 0 0 469.0416666666666 297.7916666666667L468.75 301.9999999999999L468.6249999999999 531.2499999999999A31.25 31.25 0 0 0 499.8749999999999 562.4999999999999zM500 708.2083333333334A41.625 41.625 0 1 0 500 625A41.625 41.625 0 0 0 500 708.2083333333334z" />
    <glyph glyph-name="MoreHorizontal"
      unicode="&#xEA19;"
      horiz-adv-x="1000" d="M322.9166666666667 500A72.9166666666667 72.9166666666667 0 1 0 177.0833333333333 500A72.9166666666667 72.9166666666667 0 0 0 322.9166666666667 500zM572.9166666666666 500A72.9166666666667 72.9166666666667 0 1 0 427.0833333333333 500A72.9166666666667 72.9166666666667 0 0 0 572.9166666666666 500zM750 427.0833333333334A72.9166666666667 72.9166666666667 0 1 1 750 572.9166666666667A72.9166666666667 72.9166666666667 0 0 1 750 427.0833333333334z" />
    <glyph glyph-name="Play"
      unicode="&#xEA1A;"
      horiz-adv-x="1000" d="M317 807.7083333333334A31.25 31.25 0 0 1 270.8333333333333 780.25V219.7500000000001A31.25 31.25 0 0 1 317 192.2916666666668L832.0833333333333 472.5416666666667A31.25 31.25 0 0 1 832.0833333333333 527.4583333333334L317 807.7083333333334zM208.3333333333333 780.25C208.3333333333333 851.375 284.4166666666667 896.5833333333334 346.875 862.625L861.9583333333331 582.375C927.2083333333331 546.8333333333334 927.2083333333331 453.1666666666667 861.9583333333331 417.6666666666668L346.875 137.4166666666666C284.4166666666667 103.4166666666667 208.3333333333333 148.6666666666668 208.3333333333333 219.7500000000001V780.25z" />
    <glyph glyph-name="RectangleLandscape"
      unicode="&#xEA1B;"
      horiz-adv-x="1000" d="M83.3333333333333 697.9166666666667A135.4166666666667 135.4166666666667 0 0 0 218.75 833.3333333333334H781.25A135.4166666666667 135.4166666666667 0 0 0 916.6666666666666 697.9166666666667V302.0833333333334A135.4166666666667 135.4166666666667 0 0 0 781.25 166.6666666666668H218.75A135.4166666666667 135.4166666666667 0 0 0 83.3333333333333 302.0833333333334V697.9166666666667zM218.75 770.8333333333334A72.9166666666667 72.9166666666667 0 0 1 145.8333333333333 697.9166666666667V302.0833333333334C145.8333333333333 261.8333333333334 178.5 229.1666666666668 218.75 229.1666666666668H781.25A72.9166666666667 72.9166666666667 0 0 1 854.1666666666666 302.0833333333334V697.9166666666667A72.9166666666667 72.9166666666667 0 0 1 781.25 770.8333333333334H218.75z" />
    <glyph glyph-name="Save"
      unicode="&#xEA1C;"
      horiz-adv-x="1000" d="M125 760.4166666666667A114.5833333333333 114.5833333333333 0 0 0 239.5833333333333 875H654.75A135.4166666666667 135.4166666666667 0 0 0 750.5416666666667 835.3333333333334L835.3333333333334 750.5416666666667C860.75 725.125 875 690.6666666666667 875 654.75V239.5833333333334A114.5833333333333 114.5833333333333 0 0 0 760.4166666666666 125H239.5833333333333A114.5833333333333 114.5833333333333 0 0 0 125 239.5833333333334V760.4166666666667zM239.5833333333333 812.5C210.8333333333334 812.5 187.5 789.1666666666666 187.5 760.4166666666667V239.5833333333334C187.5 210.8333333333334 210.8333333333334 187.5 239.5833333333333 187.5H250V406.25A93.75 93.75 0 0 0 343.75 500H656.25A93.75 93.75 0 0 0 750 406.25V187.5H760.4166666666666C789.1666666666666 187.5 812.5 210.8333333333334 812.5 239.5833333333334V654.75C812.5 674.125 804.8333333333333 692.6666666666667 791.1249999999999 706.3333333333334L706.3333333333333 791.125A72.9166666666667 72.9166666666667 0 0 1 666.6666666666665 811.5416666666667V697.9166666666667A93.75 93.75 0 0 0 572.9166666666665 604.1666666666667H385.4166666666666A93.75 93.75 0 0 0 291.6666666666667 697.9166666666667V812.5H239.5833333333333zM687.5 187.5V406.25A31.25 31.25 0 0 1 656.25 437.5H343.75A31.25 31.25 0 0 1 312.5 406.25V187.5H687.5zM354.1666666666667 812.5V697.9166666666667C354.1666666666667 680.6666666666667 368.1666666666667 666.6666666666667 385.4166666666667 666.6666666666667H572.9166666666666A31.25 31.25 0 0 1 604.1666666666666 697.9166666666667V812.5H354.1666666666667z" />
    <glyph glyph-name="Search"
      unicode="&#xEA1D;"
      horiz-adv-x="1000" d="M416.6666666666667 885.4166666666666A302.0833333333333 302.0833333333333 0 0 0 651.2499999999999 392.9583333333334L855.4166666666666 188.7916666666666A31.25 31.25 0 0 0 814.75 141.5416666666666L811.25 144.5833333333334L607.0416666666667 348.75A302.0833333333333 302.0833333333333 0 1 0 416.6666666666667 885.4166666666666zM416.6666666666667 822.9166666666667A239.5833333333333 239.5833333333333 0 1 1 416.6666666666667 343.75A239.5833333333333 239.5833333333333 0 0 1 416.6666666666667 822.9166666666667z" />
    <glyph glyph-name="Settings"
      unicode="&#xEA1E;"
      horiz-adv-x="1000" d="M500.5 906.25C531.0833333333334 905.9166666666666 561.5416666666666 902.375 591.4166666666666 895.7083333333334A31.25 31.25 0 0 0 615.6666666666667 868.6666666666666L622.75 805.0416666666666A57.6666666666667 57.6666666666667 0 0 1 703.0416666666666 758.5416666666667L761.4166666666666 784.1666666666667A31.25 31.25 0 0 0 796.8333333333334 776.9166666666667A408 408 0 0 0 888.6666666666667 618.9166666666666A31.25 31.25 0 0 0 877.375 584.5416666666667L825.625 546.375A57.5416666666667 57.5416666666667 0 0 1 825.625 453.625L877.4166666666666 415.5000000000001A31.25 31.25 0 0 0 888.7499999999999 381.0833333333334A408.2083333333334 408.2083333333334 0 0 0 796.9166666666665 223.0833333333334A31.25 31.25 0 0 0 761.5833333333333 215.7916666666666L702.9583333333333 241.5A57.5 57.5 0 0 1 622.7083333333333 195.0833333333334L615.6666666666665 131.5A31.25 31.25 0 0 0 591.8333333333333 104.5416666666667A396.5833333333334 396.5833333333334 0 0 0 408.2499999999999 104.5416666666667A31.25 31.25 0 0 0 384.4166666666667 131.5L377.4166666666667 195A57.5833333333333 57.5833333333333 0 0 1 297.1666666666667 241.25L238.5833333333333 215.5833333333334A31.25 31.25 0 0 0 203.2083333333333 222.875A408.25 408.25 0 0 0 111.375 381.0416666666667A31.25 31.25 0 0 0 122.7083333333333 415.4583333333334L174.5 453.625A57.5 57.5 0 0 1 174.5 546.375L122.7083333333333 584.4583333333333A31.25 31.25 0 0 0 111.4166666666666 618.875A408.0416666666665 408.0416666666665 0 0 0 203.25 776.875A31.25 31.25 0 0 0 238.6666666666667 784.125L297 758.5A57.7916666666667 57.7916666666667 0 0 1 377.4166666666667 805.0833333333334L384.5 868.6666666666666A31.25 31.25 0 0 0 408.7916666666667 895.75C438.6666666666667 902.375 469.2083333333333 905.875 500.5 906.25zM500.5 843.75A380.625 380.625 0 0 1 444.0833333333334 838.875L439.5416666666667 798.1666666666666A120.25 120.25 0 0 0 271.875 701.25L234.4583333333334 717.6666666666667A345.5416666666666 345.5416666666666 0 0 1 178.2916666666667 621.125L211.5416666666667 596.6666666666667A120.0416666666667 120.0416666666667 0 0 0 211.5416666666667 403.2083333333334L178.25 378.7083333333334C191.5833333333334 343.625 210.5833333333334 310.9583333333334 234.4166666666667 281.9583333333334L272.125 298.5A120.0833333333333 120.0833333333333 0 0 0 439.5000000000001 201.9166666666665L444.0833333333334 160.9166666666665C481.125 154.6666666666665 519 154.6666666666665 556.0416666666666 160.9166666666665L560.625 201.9166666666665A120.0416666666667 120.0416666666667 0 0 0 728.0416666666666 298.6666666666665L765.75 282.1666666666665A345.6666666666667 345.6666666666667 0 0 1 821.875 378.7499999999998L788.6249999999999 403.2499999999998A120.0416666666667 120.0416666666667 0 0 0 788.6249999999999 596.7083333333331L821.7916666666666 621.1666666666665A345.5416666666666 345.5416666666666 0 0 1 765.625 717.708333333333L728.2916666666666 701.3333333333331A120.1666666666667 120.1666666666667 0 0 0 560.6666666666666 798.1666666666664L556.0833333333333 838.8333333333331A374.5 374.5 0 0 1 500.5416666666666 843.7083333333331zM500 656.25A156.25 156.25 0 1 0 500 343.75A156.25 156.25 0 0 0 500 656.25zM500 593.75A93.75 93.75 0 1 1 500 406.25A93.75 93.75 0 0 1 500 593.75z" />
    <glyph glyph-name="SplitHorizontal"
      unicode="&#xEA1F;"
      horiz-adv-x="1000" d="M885.4166666666666 479.1666666666667A31.25 31.25 0 0 1 885.4166666666666 541.6666666666667H114.5833333333333A31.25 31.25 0 0 1 114.5833333333333 479.1666666666667H885.4166666666666zM833.3333333333333 822.9166666666667A93.75 93.75 0 0 1 739.5833333333333 916.6666666666666H260.4166666666667A93.75 93.75 0 0 1 166.6666666666667 822.9166666666667V583.3333333333334H229.1666666666667V822.9166666666667A31.25 31.25 0 0 0 260.4166666666667 854.1666666666667H739.5833333333333A31.25 31.25 0 0 0 770.8333333333333 822.9166666666667V583.3333333333334H833.3333333333333V822.9166666666667zM229.1666666666667 197.9166666666668V437.5H166.6666666666667V197.9166666666668A93.75 93.75 0 0 1 260.4166666666667 104.1666666666667H739.5833333333333A93.75 93.75 0 0 1 833.3333333333333 197.9166666666668V437.5H770.8333333333333V197.9166666666668A31.25 31.25 0 0 0 739.5833333333333 166.6666666666668H260.4166666666667A31.25 31.25 0 0 0 229.1666666666667 197.9166666666668z" />
    <glyph glyph-name="SplitVertical"
      unicode="&#xEA20;"
      horiz-adv-x="1000" d="M520.8333333333333 885.4166666666666A31.25 31.25 0 0 1 458.3333333333333 885.4166666666666V114.5833333333334A31.25 31.25 0 0 1 520.8333333333333 114.5833333333334V885.4166666666666zM177.0833333333333 833.3333333333334A93.75 93.75 0 0 1 83.3333333333333 739.5833333333334V260.4166666666668A93.75 93.75 0 0 1 177.0833333333333 166.6666666666668H416.6666666666667V229.1666666666668H177.0833333333333A31.25 31.25 0 0 0 145.8333333333333 260.4166666666668V739.5833333333334A31.25 31.25 0 0 0 177.0833333333333 770.8333333333334H416.6666666666667V833.3333333333334H177.0833333333333zM802.0833333333333 229.1666666666668H562.5V166.6666666666668H802.0833333333333A93.75 93.75 0 0 1 895.8333333333333 260.4166666666668V739.5833333333334A93.75 93.75 0 0 1 802.0833333333333 833.3333333333334H562.5V770.8333333333334H802.0833333333333A31.25 31.25 0 0 0 833.3333333333333 739.5833333333334V260.4166666666668A31.25 31.25 0 0 0 802.0833333333333 229.1666666666668z" />
    <glyph glyph-name="TableSimple"
      unicode="&#xEA21;"
      horiz-adv-x="1000" d="M125 739.5833333333334A135.4166666666667 135.4166666666667 0 0 0 260.4166666666667 875H739.5833333333333A135.4166666666667 135.4166666666667 0 0 0 875 739.5833333333334V260.4166666666668A135.4166666666667 135.4166666666667 0 0 0 739.5833333333333 125H260.4166666666667A135.4166666666667 135.4166666666667 0 0 0 125 260.4166666666668V739.5833333333334zM260.4166666666667 812.5A72.9166666666667 72.9166666666667 0 0 1 187.5 739.5833333333334V531.25H468.75V812.5H260.4166666666667zM468.75 468.75H187.5V260.4166666666668C187.5 220.1666666666666 220.1666666666667 187.5 260.4166666666667 187.5H468.75V468.75zM531.25 468.75V187.5H739.5833333333333A72.9166666666667 72.9166666666667 0 0 1 812.5 260.4166666666668V468.75H531.25zM812.5 531.25V739.5833333333334A72.9166666666667 72.9166666666667 0 0 1 739.5833333333333 812.5H531.25V531.25H812.5z" />
    <glyph glyph-name="TableStackBelow"
      unicode="&#xEA22;"
      horiz-adv-x="1000" d="M156.25 354.1666666666668A31.25 31.25 0 0 0 125 385.4166666666668V739.5833333333334A135.4166666666667 135.4166666666667 0 0 0 260.4166666666667 875H739.5833333333333A135.4166666666667 135.4166666666667 0 0 0 875 739.5833333333334V385.4166666666668A31.25 31.25 0 0 0 843.75 354.1666666666668H156.25zM416.6666666666667 416.6666666666668H583.3333333333333V583.3333333333334H416.6666666666667V416.6666666666668zM416.6666666666667 645.8333333333334H583.3333333333333V812.5H416.6666666666667V645.8333333333334zM645.8333333333333 416.6666666666668H812.5V583.3333333333334H645.8333333333333V416.6666666666668zM645.8333333333333 645.8333333333334H812.5V739.5833333333334A72.9166666666667 72.9166666666667 0 0 1 739.5833333333333 812.5H645.8333333333333V645.8333333333334zM354.1666666666667 812.5H260.4166666666667A72.9166666666667 72.9166666666667 0 0 1 187.5 739.5833333333334V645.8333333333334H354.1666666666667V812.5zM187.5 416.6666666666668H354.1666666666667V583.3333333333334H187.5V416.6666666666668zM156.25 187.5A31.25 31.25 0 0 1 156.25 125H843.75A31.25 31.25 0 0 1 843.75 187.5H156.25z" />
  </font>
</defs>
</svg>
