<svg xmlns="http://www.w3.org/2000/svg" xmlns:xlink="http://www.w3.org/1999/xlink" width="0" height="0" style="display:none;"><symbol viewBox="0 0 24 24" id="fluent-icons-AddCircle"><path d="M12 2c5.523 0 10 4.477 10 10s-4.477 10-10 10S2 17.523 2 12 6.477 2 12 2Zm0 1.5a8.5 8.5 0 1 0 0 17 8.5 8.5 0 0 0 0-17ZM12 7a.75.75 0 0 1 .75.75v3.5h3.5a.75.75 0 0 1 0 1.5h-3.5v3.5a.75.75 0 0 1-1.5 0v-3.5h-3.5a.75.75 0 0 1 0-1.5h3.5v-3.5A.75.75 0 0 1 12 7Z" fill="#000000"></path></symbol><symbol viewBox="0 0 24 24" id="fluent-icons-ArrowCounterclockwise"><path d="M12 4.5a7.5 7.5 0 1 1-7.419 6.392c.067-.454-.265-.892-.724-.892a.749.749 0 0 0-.752.623A9 9 0 1 0 6 5.292V4.25a.75.75 0 0 0-1.5 0v3c0 .414.336.75.75.75h3a.75.75 0 0 0 0-1.5H6.9a7.473 7.473 0 0 1 5.1-2Z" fill="#000000"></path></symbol><symbol viewBox="0 0 24 24" id="fluent-icons-ArrowNext"><path d="M18.25 3a.75.75 0 0 1 .743.648L19 3.75v16.5a.75.75 0 0 1-1.493.102l-.007-.102V3.75a.75.75 0 0 1 .75-.75Zm-13.03.22a.75.75 0 0 1 .976-.073l.084.073 8.25 8.25a.75.75 0 0 1 .073.976l-.073.084-8.25 8.25a.75.75 0 0 1-1.133-.976l.073-.084L12.94 12 5.22 4.28a.75.75 0 0 1 0-1.06Z" fill="#000000"></path></symbol><symbol viewBox="0 0 24 24" id="fluent-icons-ArrowPrevious"><path d="M5.75 3a.75.75 0 0 0-.743.648L5 3.75v16.5a.75.75 0 0 0 1.493.102l.007-.102V3.75A.75.75 0 0 0 5.75 3Zm13.03.22a.75.75 0 0 0-.976-.073l-.084.073-8.25 8.25a.75.75 0 0 0-.073.976l.073.084 8.25 8.25a.75.75 0 0 0 1.133-.976l-.073-.084L11.06 12l7.72-7.72a.75.75 0 0 0 0-1.06Z" fill="#000000"></path></symbol><symbol viewBox="0 0 24 24" id="fluent-icons-ArrowRedo"><path d="M19.25 2a.75.75 0 0 0-.743.648l-.007.102v5.69l-4.574-4.56a6.41 6.41 0 0 0-8.878-.179l-.186.18a6.41 6.41 0 0 0 0 9.063l8.845 8.84a.75.75 0 0 0 1.06-1.062l-8.845-8.838a4.91 4.91 0 0 1 6.766-7.112l.178.17L17.438 9.5H11.75a.75.75 0 0 0-.743.648L11 10.25c0 .38.282.694.648.743l.102.007h7.5a.75.75 0 0 0 .743-.648L20 10.25v-7.5a.75.75 0 0 0-.75-.75Z" fill="#000000"></path></symbol><symbol viewBox="0 0 24 24" id="fluent-icons-ArrowUndo"><path d="M4.75 2a.75.75 0 0 1 .743.648l.007.102v5.69l4.574-4.56a6.41 6.41 0 0 1 8.879-.179l.186.18a6.41 6.41 0 0 1 0 9.063l-8.846 8.84a.75.75 0 0 1-1.06-1.062l8.845-8.838a4.91 4.91 0 0 0-6.766-7.112l-.178.17L6.562 9.5h5.688a.75.75 0 0 1 .743.648l.007.102a.75.75 0 0 1-.648.743L12.25 11h-7.5a.75.75 0 0 1-.743-.648L4 10.25v-7.5A.75.75 0 0 1 4.75 2Z" fill="#000000"></path></symbol><symbol viewBox="0 0 24 24" id="fluent-icons-ArrowUpload"><path d="M18.25 3.509a.75.75 0 1 0 0-1.5l-13-.004a.75.75 0 1 0 0 1.5l13 .004Zm-6.602 18.488.102.007a.75.75 0 0 0 .743-.649l.007-.101-.001-13.685 3.722 3.72a.75.75 0 0 0 .976.072l.085-.072a.75.75 0 0 0 .072-.977l-.073-.084-4.997-4.996a.75.75 0 0 0-.976-.073l-.085.072-5.003 4.997a.75.75 0 0 0 .976 1.134l.084-.073 3.719-3.713L11 21.254c0 .38.282.693.648.743Z" fill="#000000"></path></symbol><symbol viewBox="0 0 24 24" id="fluent-icons-BoardSplit"><path d="M3 6.25A3.25 3.25 0 0 1 6.25 3h11.5A3.25 3.25 0 0 1 21 6.25v11.5A3.25 3.25 0 0 1 17.75 21H6.25A3.25 3.25 0 0 1 3 17.75V6.25Zm1.5 6.25v5.25c0 .966.784 1.75 1.75 1.75H14v-7H4.5ZM14 11V4.5H6.25A1.75 1.75 0 0 0 4.5 6.25V11H14Zm5.5-1.5h-4v5h4v-5Zm0 6.5h-4v3.5h2.25a1.75 1.75 0 0 0 1.75-1.75V16Zm0-8V6.25a1.75 1.75 0 0 0-1.75-1.75H15.5V8h4Z" fill="#000000"></path></symbol><symbol viewBox="0 0 24 24" id="fluent-icons-BroadActivityFeed"><path d="M9.255 14.005c.966 0 1.75.783 1.75 1.75v3.498a1.75 1.75 0 0 1-1.75 1.75H3.75A1.75 1.75 0 0 1 2 19.253v-3.498c0-.967.784-1.75 1.75-1.75h5.505Zm10.995 0c.966 0 1.75.783 1.75 1.75v3.498a1.75 1.75 0 0 1-1.75 1.75h-5.505a1.75 1.75 0 0 1-1.75-1.75v-3.498c0-.967.784-1.75 1.75-1.75h5.505Zm-10.995 1.5H3.75a.25.25 0 0 0-.25.25v3.498c0 .139.112.25.25.25h5.505a.25.25 0 0 0 .25-.25v-3.498a.25.25 0 0 0-.25-.25Zm10.995 0h-5.505a.25.25 0 0 0-.25.25v3.498c0 .139.112.25.25.25h5.505a.25.25 0 0 0 .25-.25v-3.498a.25.25 0 0 0-.25-.25ZM20.25 3c.966 0 1.75.784 1.75 1.75v5.5A1.75 1.75 0 0 1 20.25 12H3.75A1.75 1.75 0 0 1 2 10.25v-5.5a1.75 1.75 0 0 1 1.606-1.744L3.75 3h16.5Zm0 1.5H3.75l-.057.007a.25.25 0 0 0-.193.243v5.5c0 .138.112.25.25.25h16.5a.25.25 0 0 0 .25-.25v-5.5a.25.25 0 0 0-.25-.25Z" fill="#000000"></path></symbol><symbol viewBox="0 0 24 24" id="fluent-icons-CalendarClock"><path d="M21 6.25A3.25 3.25 0 0 0 17.75 3H6.25A3.25 3.25 0 0 0 3 6.25v11.5A3.25 3.25 0 0 0 6.25 21h5.772a6.471 6.471 0 0 1-.709-1.5H6.25a1.75 1.75 0 0 1-1.75-1.75V8.5h15v2.813a6.471 6.471 0 0 1 1.5.709V6.25ZM6.25 4.5h11.5c.966 0 1.75.784 1.75 1.75V7h-15v-.75c0-.966.784-1.75 1.75-1.75Z" fill="#000000"></path><path d="M23 17.5a5.5 5.5 0 1 0-11 0 5.5 5.5 0 0 0 11 0Zm-5.5 0h2a.5.5 0 0 1 0 1H17a.5.5 0 0 1-.5-.491v-3.01a.5.5 0 0 1 1 0V17.5Z" fill="#000000"></path></symbol><symbol viewBox="0 0 24 24" id="fluent-icons-ClipboardPaste"><path d="M12.753 2c1.158 0 2.111.875 2.234 2h1.763a2.25 2.25 0 0 1 2.245 2.096L19 6.25a.75.75 0 0 1-.647.742L18.249 7a.75.75 0 0 1-.742-.647L17.5 6.25a.75.75 0 0 0-.648-.743L16.75 5.5h-2.132a2.244 2.244 0 0 1-1.865.993H9.247c-.777 0-1.461-.393-1.865-.992L5.25 5.5a.75.75 0 0 0-.743.648L4.5 6.25v13.505c0 .38.282.693.648.743l.102.007h3a.75.75 0 0 1 .743.647l.007.102a.75.75 0 0 1-.75.75h-3a2.25 2.25 0 0 1-2.245-2.095L3 19.755V6.25a2.25 2.25 0 0 1 2.096-2.245L5.25 4h1.763a2.247 2.247 0 0 1 2.234-2h3.506Zm5.997 6a2.25 2.25 0 0 1 2.245 2.096l.005.154v9.5a2.25 2.25 0 0 1-2.096 2.245L18.75 22h-6.5a2.25 2.25 0 0 1-2.245-2.096L10 19.75v-9.5a2.25 2.25 0 0 1 2.096-2.245L12.25 8h6.5Zm0 1.5h-6.5a.75.75 0 0 0-.743.648l-.007.102v9.5c0 .38.282.694.648.743l.102.007h6.5a.75.75 0 0 0 .743-.648l.007-.102v-9.5a.75.75 0 0 0-.648-.743L18.75 9.5Zm-5.997-6H9.247a.747.747 0 0 0 0 1.493h3.506a.747.747 0 1 0 0-1.493Z" fill="#000000"></path></symbol><symbol viewBox="0 0 24 24" id="fluent-icons-ColumnTriple"><path d="M6.237 3c.967 0 1.75.784 1.75 1.75v14.5A1.75 1.75 0 0 1 6.237 21h-2.5a1.75 1.75 0 0 1-1.75-1.75V4.75a1.75 1.75 0 0 1 1.607-1.743L3.737 3h2.5Zm14.026 0c.967 0 1.75.784 1.75 1.75v14.5a1.75 1.75 0 0 1-1.75 1.75h-2.5a1.75 1.75 0 0 1-1.75-1.75V4.75c0-.966.784-1.75 1.75-1.75h2.5Zm-7.026 0c.967 0 1.75.784 1.75 1.75v14.5a1.75 1.75 0 0 1-1.75 1.75h-2.5a1.75 1.75 0 0 1-1.75-1.75V4.75c0-.966.784-1.75 1.75-1.75h2.5Zm-7 1.5h-2.5l-.057.007a.25.25 0 0 0-.193.244v14.5c0 .138.112.25.25.25h2.5a.25.25 0 0 0 .25-.25V4.75a.25.25 0 0 0-.25-.25Zm14.026 0h-2.5a.25.25 0 0 0-.25.25v14.5c0 .139.112.25.25.25h2.5a.25.25 0 0 0 .25-.25V4.75a.25.25 0 0 0-.25-.25Zm-7.026 0h-2.5a.25.25 0 0 0-.25.25v14.5c0 .138.112.25.25.25h2.5a.25.25 0 0 0 .25-.25V4.75a.25.25 0 0 0-.25-.25Z" fill="#000000"></path></symbol><symbol viewBox="0 0 24 24" id="fluent-icons-Copy"><path d="M5.503 4.627 5.5 6.75v10.504a3.25 3.25 0 0 0 3.25 3.25h8.616a2.251 2.251 0 0 1-2.122 1.5H8.75A4.75 4.75 0 0 1 4 17.254V6.75c0-.98.627-1.815 1.503-2.123ZM17.75 2A2.25 2.25 0 0 1 20 4.25v13a2.25 2.25 0 0 1-2.25 2.25h-9a2.25 2.25 0 0 1-2.25-2.25v-13A2.25 2.25 0 0 1 8.75 2h9Zm0 1.5h-9a.75.75 0 0 0-.75.75v13c0 .414.336.75.75.75h9a.75.75 0 0 0 .75-.75v-13a.75.75 0 0 0-.75-.75Z" fill="#000000"></path></symbol><symbol viewBox="0 0 24 24" id="fluent-icons-Cut"><path d="M12.14 9.341v.002L7.37 2.328a.75.75 0 1 0-1.24.844l5.13 7.545-2.395 3.743a4 4 0 1 0 1.178.943l2.135-3.337 2.065 3.036a4 4 0 1 0 1.261-.813l-2.447-3.597.002-.002-.918-1.348Zm-7.64 8.66a2.5 2.5 0 1 1 5 0 2.5 2.5 0 0 1-5 0Zm10 0a2.5 2.5 0 1 1 5 0 2.5 2.5 0 0 1-5 0Z" fill="#000000"></path><path d="m13.938 9.316 3.943-6.162a.75.75 0 1 0-1.263-.808L13.02 7.968l.918 1.348Z" fill="#000000"></path></symbol><symbol viewBox="0 0 24 24" id="fluent-icons-Dismiss"><path d="m4.397 4.554.073-.084a.75.75 0 0 1 .976-.073l.084.073L12 10.939l6.47-6.47a.75.75 0 1 1 1.06 1.061L13.061 12l6.47 6.47a.75.75 0 0 1 .072.976l-.073.084a.75.75 0 0 1-.976.073l-.084-.073L12 13.061l-6.47 6.47a.75.75 0 0 1-1.06-1.061L10.939 12l-6.47-6.47a.75.75 0 0 1-.072-.976l.073-.084-.073.084Z" fill="#000000"></path></symbol><symbol viewBox="0 0 24 24" id="fluent-icons-DocumentAdd"><path d="M18.5 20a.5.5 0 0 1-.5.5h-5.732A6.518 6.518 0 0 1 11.19 22H18a2 2 0 0 0 2-2V9.828a2 2 0 0 0-.586-1.414l-5.829-5.828a.491.491 0 0 0-.049-.04.63.63 0 0 1-.036-.03 2.072 2.072 0 0 0-.219-.18.652.652 0 0 0-.08-.044l-.048-.024-.05-.029c-.054-.031-.109-.063-.166-.087a1.977 1.977 0 0 0-.624-.138c-.02-.001-.04-.004-.059-.007A.605.605 0 0 0 12.172 2H6a2 2 0 0 0-2 2v7.498a6.451 6.451 0 0 1 1.5-.422V4a.5.5 0 0 1 .5-.5h6V8a2 2 0 0 0 2 2h4.5v10Zm-5-15.379L17.378 8.5H14a.5.5 0 0 1-.5-.5V4.621Z" fill="#000000"></path><path d="M12 17.5a5.5 5.5 0 1 0-11 0 5.5 5.5 0 0 0 11 0ZM7 18l.001 2.503a.5.5 0 1 1-1 0V18H3.496a.5.5 0 0 1 0-1H6v-2.5a.5.5 0 1 1 1 0V17h2.497a.5.5 0 0 1 0 1H7Z" fill="#000000"></path></symbol><symbol viewBox="0 0 24 24" id="fluent-icons-DocumentError"><path d="M18.5 20a.5.5 0 0 1-.5.5h-5.732A6.518 6.518 0 0 1 11.19 22H18a2 2 0 0 0 2-2V9.828a2 2 0 0 0-.586-1.414l-5.829-5.828a.491.491 0 0 0-.049-.04.63.63 0 0 1-.036-.03 2.072 2.072 0 0 0-.219-.18.652.652 0 0 0-.08-.044l-.048-.024-.05-.029c-.054-.031-.109-.063-.166-.087a1.977 1.977 0 0 0-.624-.138c-.02-.001-.04-.004-.059-.007A.605.605 0 0 0 12.172 2H6a2 2 0 0 0-2 2v7.498a6.451 6.451 0 0 1 1.5-.422V4a.5.5 0 0 1 .5-.5h6V8a2 2 0 0 0 2 2h4.5v10Zm-5-15.379L17.378 8.5H14a.5.5 0 0 1-.5-.5V4.621Z" fill="#000000"></path><path d="M12 17.5a5.5 5.5 0 1 1-11 0 5.5 5.5 0 0 1 11 0ZM6.5 14a.5.5 0 0 0-.5.5v4a.5.5 0 0 0 1 0v-4a.5.5 0 0 0-.5-.5Zm0 7.125a.625.625 0 1 0 0-1.25.625.625 0 0 0 0 1.25Z" fill="#000000"></path></symbol><symbol viewBox="0 0 24 24" id="fluent-icons-DocumentHeaderRemove"><path d="M19.99 4.092a2.25 2.25 0 0 0-2.245-2.096h-11.5l-.154.005a2.25 2.25 0 0 0-2.096 2.245v15.498l.005.154a2.25 2.25 0 0 0 2.245 2.096h6.559a6.522 6.522 0 0 1-1.075-1.5H6.245l-.102-.007a.75.75 0 0 1-.648-.743V4.246l.007-.102a.75.75 0 0 1 .743-.648h11.5l.102.007a.75.75 0 0 1 .648.743v6.83c.523.08 1.026.223 1.5.42v-7.25l-.005-.154Z" fill="#000000"></path><path d="M14.329 21.994a5.5 5.5 0 1 0 6.343-8.988 5.5 5.5 0 0 0-6.344 8.988Zm3.172-5.2 1.771-1.77a.5.5 0 1 1 .708.708l-1.772 1.77 1.769 1.768a.5.5 0 1 1-.707.707l-1.77-1.769-1.766 1.767a.5.5 0 1 1-.707-.707l1.766-1.767-1.769-1.77a.5.5 0 0 1 .707-.707l1.77 1.77ZM7 6.75C7 5.784 7.784 5 8.75 5h6.5c.967 0 1.75.784 1.75 1.75v1.5A1.75 1.75 0 0 1 15.25 10h-6.5A1.75 1.75 0 0 1 7 8.25v-1.5Zm1.75-.25a.25.25 0 0 0-.25.25v1.5c0 .138.112.25.25.25h6.5a.25.25 0 0 0 .25-.25v-1.5a.25.25 0 0 0-.25-.25h-6.5Z" fill="#000000"></path></symbol><symbol viewBox="0 0 24 24" id="fluent-icons-DocumentSearch"><path d="M11.409 10.946a4.927 4.927 0 0 1 .54 6.326l-.141.19 4.217 4.218.075.087a.773.773 0 0 1-1.081 1.081l-.087-.075-4.257-4.256a4.927 4.927 0 0 1-6.232-7.57 4.926 4.926 0 0 1 6.966 0ZM13.129 2a2.25 2.25 0 0 1 1.59.659l2.812 2.81 2.808 2.812c.421.422.658.994.658 1.59v9.879a2.25 2.25 0 0 1-2.25 2.25h-1.51a1.765 1.765 0 0 0-.334-.83l-.12-.143-.527-.528 2.49.001a.75.75 0 0 0 .75-.75v-9.747H15.25a2.25 2.25 0 0 1-2.245-2.095L13 7.754V3.5H7.25a.75.75 0 0 0-.75.75v4.421a5.894 5.894 0 0 0-1.501.582L5 4.25A2.25 2.25 0 0 1 7.25 2h5.879ZM5.536 12.04a3.38 3.38 0 1 0 4.78 4.779 3.38 3.38 0 0 0-4.78-4.78ZM14.5 4.56v3.194c0 .38.282.693.648.743l.102.007 3.191-.001L14.5 4.56Z" fill="#000000"></path></symbol><symbol viewBox="0 0 24 24" id="fluent-icons-DualScreenGroup"><path d="M12.755 4.001v.002h7.498c.966 0 1.75.784 1.75 1.75v12.495a1.75 1.75 0 0 1-1.75 1.75h-8.998v-.002H3.756a1.75 1.75 0 0 1-1.75-1.75V5.751c0-.967.784-1.75 1.75-1.75h8.998Zm7.498 1.502h-7.498v12.995h7.498a.25.25 0 0 0 .25-.25V5.754a.25.25 0 0 0-.25-.25Zm-8.998-.002H3.757a.25.25 0 0 0-.25.25v12.495c0 .138.112.25.25.25h7.498V5.501Z" fill="#000000"></path></symbol><symbol viewBox="0 0 24 24" id="fluent-icons-EditSettings"><path d="M21.031 2.97a3.579 3.579 0 0 1 0 5.06l-2.992 2.992a6.565 6.565 0 0 0-2.358.236L17.94 9 15.001 6.06 5.063 16a.75.75 0 0 0-.193.332l-1.05 3.85 3.85-1.05a.75.75 0 0 0 .332-.193l3.257-3.257a6.501 6.501 0 0 0-.236 2.357l-1.96 1.96a2.25 2.25 0 0 1-1 .58l-5.115 1.395a.75.75 0 0 1-.92-.92l1.394-5.116a2.25 2.25 0 0 1 .58-1L15.97 2.97a3.578 3.578 0 0 1 5.061 0Zm-4 1.06-.97.97L19 7.94l.97-.97a2.078 2.078 0 1 0-2.939-2.94Zm-2.752 9.945a2 2 0 0 1-1.441 2.497l-.584.144a5.729 5.729 0 0 0 .006 1.807l.54.13a2 2 0 0 1 1.45 2.51l-.187.632c.44.386.94.699 1.484.921l.494-.518a2 2 0 0 1 2.899 0l.498.525a5.28 5.28 0 0 0 1.483-.913l-.198-.686a2 2 0 0 1 1.442-2.496l.583-.144a5.729 5.729 0 0 0-.006-1.808l-.54-.13a2 2 0 0 1-1.45-2.51l.187-.63a5.28 5.28 0 0 0-1.484-.923l-.493.519a2 2 0 0 1-2.9 0l-.498-.525c-.544.22-1.044.53-1.483.912l.198.686ZM17.501 19c-.8 0-1.45-.672-1.45-1.5 0-.829.65-1.5 1.45-1.5.8 0 1.45.671 1.45 1.5 0 .828-.65 1.5-1.45 1.5Z" fill="#000000"></path></symbol><symbol viewBox="0 0 24 24" id="fluent-icons-Filter"><path d="M13.5 16a.75.75 0 0 1 0 1.5h-3a.75.75 0 0 1 0-1.5h3Zm3-5a.75.75 0 0 1 0 1.5h-9a.75.75 0 0 1 0-1.5h9Zm3-5a.75.75 0 0 1 0 1.5h-15a.75.75 0 0 1 0-1.5h15Z" fill="#000000"></path></symbol><symbol viewBox="0 0 24 24" id="fluent-icons-FolderOpen"><path d="M20 9.502V8.75a2.25 2.25 0 0 0-2.25-2.25h-5.725l-2.38-1.98A2.25 2.25 0 0 0 8.204 4H4.25A2.25 2.25 0 0 0 2 6.25l-.004 11.5A2.25 2.25 0 0 0 4.246 20H18.47a1.75 1.75 0 0 0 1.698-1.325l1.75-6.998a1.75 1.75 0 0 0-1.698-2.175H20ZM4.25 5.5h3.956a.75.75 0 0 1 .48.173l2.588 2.154a.75.75 0 0 0 .48.173h5.996a.75.75 0 0 1 .75.75v.752H6.424a2.25 2.25 0 0 0-2.183 1.704l-.744 2.978L3.5 6.25a.75.75 0 0 1 .75-.75Zm1.447 6.07a.75.75 0 0 1 .727-.568H20.22a.25.25 0 0 1 .242.31l-1.75 6.999a.25.25 0 0 1-.242.189H4.285a.25.25 0 0 1-.243-.31l1.655-6.62Z" fill="#000000"></path></symbol><symbol viewBox="0 0 24 24" id="fluent-icons-Info"><path d="M12 1.999c5.524 0 10.002 4.478 10.002 10.002 0 5.523-4.478 10.001-10.002 10.001-5.524 0-10.002-4.478-10.002-10.001C1.998 6.477 6.476 1.999 12 1.999Zm0 1.5a8.502 8.502 0 1 0 0 17.003A8.502 8.502 0 0 0 12 3.5Zm-.004 7a.75.75 0 0 1 .744.648l.007.102.003 5.502a.75.75 0 0 1-1.493.102l-.007-.101-.003-5.502a.75.75 0 0 1 .75-.75ZM12 7.003a.999.999 0 1 1 0 1.997.999.999 0 0 1 0-1.997Z" fill="#000000"></path></symbol><symbol viewBox="0 0 24 24" id="fluent-icons-MoreHorizontal"><path d="M7.75 12a1.75 1.75 0 1 1-3.5 0 1.75 1.75 0 0 1 3.5 0ZM13.75 12a1.75 1.75 0 1 1-3.5 0 1.75 1.75 0 0 1 3.5 0ZM18 13.75a1.75 1.75 0 1 0 0-3.5 1.75 1.75 0 0 0 0 3.5Z" fill="#000000"></path></symbol><symbol viewBox="0 0 24 24" id="fluent-icons-Play"><path d="M7.608 4.615a.75.75 0 0 0-1.108.659v13.452a.75.75 0 0 0 1.108.659l12.362-6.726a.75.75 0 0 0 0-1.318L7.608 4.615ZM5 5.274c0-1.707 1.826-2.792 3.325-1.977l12.362 6.726c1.566.853 1.566 3.101 0 3.953L8.325 20.702C6.826 21.518 5 20.432 5 18.726V5.274Z" fill="#000000"></path></symbol><symbol viewBox="0 0 24 24" id="fluent-icons-RectangleLandscape"><path d="M2 7.25A3.25 3.25 0 0 1 5.25 4h13.5A3.25 3.25 0 0 1 22 7.25v9.5A3.25 3.25 0 0 1 18.75 20H5.25A3.25 3.25 0 0 1 2 16.75v-9.5ZM5.25 5.5A1.75 1.75 0 0 0 3.5 7.25v9.5c0 .966.784 1.75 1.75 1.75h13.5a1.75 1.75 0 0 0 1.75-1.75v-9.5a1.75 1.75 0 0 0-1.75-1.75H5.25Z" fill="#000000"></path></symbol><symbol viewBox="0 0 24 24" id="fluent-icons-Save"><path d="M3 5.75A2.75 2.75 0 0 1 5.75 3h9.964a3.25 3.25 0 0 1 2.299.952l2.035 2.035c.61.61.952 1.437.952 2.299v9.964A2.75 2.75 0 0 1 18.25 21H5.75A2.75 2.75 0 0 1 3 18.25V5.75ZM5.75 4.5c-.69 0-1.25.56-1.25 1.25v12.5c0 .69.56 1.25 1.25 1.25H6v-5.25A2.25 2.25 0 0 1 8.25 12h7.5A2.25 2.25 0 0 1 18 14.25v5.25h.25c.69 0 1.25-.56 1.25-1.25V8.286c0-.465-.184-.91-.513-1.238l-2.035-2.035a1.75 1.75 0 0 0-.952-.49V7.25a2.25 2.25 0 0 1-2.25 2.25h-4.5A2.25 2.25 0 0 1 7 7.25V4.5H5.75Zm10.75 15v-5.25a.75.75 0 0 0-.75-.75h-7.5a.75.75 0 0 0-.75.75v5.25h9Zm-8-15v2.75c0 .414.336.75.75.75h4.5a.75.75 0 0 0 .75-.75V4.5h-6Z" fill="#000000"></path></symbol><symbol viewBox="0 0 24 24" id="fluent-icons-Search"><path d="M10 2.75a7.25 7.25 0 0 1 5.63 11.819l4.9 4.9a.75.75 0 0 1-.976 1.134l-.084-.073-4.901-4.9A7.25 7.25 0 1 1 10 2.75Zm0 1.5a5.75 5.75 0 1 0 0 11.5 5.75 5.75 0 0 0 0-11.5Z" fill="#000000"></path></symbol><symbol viewBox="0 0 24 24" id="fluent-icons-Settings"><path d="M12.012 2.25c.734.008 1.465.093 2.182.253a.75.75 0 0 1 .582.649l.17 1.527a1.384 1.384 0 0 0 1.927 1.116l1.401-.615a.75.75 0 0 1 .85.174 9.792 9.792 0 0 1 2.204 3.792.75.75 0 0 1-.271.825l-1.242.916a1.381 1.381 0 0 0 0 2.226l1.243.915a.75.75 0 0 1 .272.826 9.797 9.797 0 0 1-2.204 3.792.75.75 0 0 1-.848.175l-1.407-.617a1.38 1.38 0 0 0-1.926 1.114l-.169 1.526a.75.75 0 0 1-.572.647 9.518 9.518 0 0 1-4.406 0 .75.75 0 0 1-.572-.647l-.168-1.524a1.382 1.382 0 0 0-1.926-1.11l-1.406.616a.75.75 0 0 1-.849-.175 9.798 9.798 0 0 1-2.204-3.796.75.75 0 0 1 .272-.826l1.243-.916a1.38 1.38 0 0 0 0-2.226l-1.243-.914a.75.75 0 0 1-.271-.826 9.793 9.793 0 0 1 2.204-3.792.75.75 0 0 1 .85-.174l1.4.615a1.387 1.387 0 0 0 1.93-1.118l.17-1.526a.75.75 0 0 1 .583-.65c.717-.159 1.45-.243 2.201-.252Zm0 1.5a9.135 9.135 0 0 0-1.354.117l-.109.977A2.886 2.886 0 0 1 6.525 7.17l-.898-.394a8.293 8.293 0 0 0-1.348 2.317l.798.587a2.881 2.881 0 0 1 0 4.643l-.799.588c.32.842.776 1.626 1.348 2.322l.905-.397a2.882 2.882 0 0 1 4.017 2.318l.11.984c.889.15 1.798.15 2.687 0l.11-.984a2.881 2.881 0 0 1 4.018-2.322l.905.396a8.296 8.296 0 0 0 1.347-2.318l-.798-.588a2.881 2.881 0 0 1 0-4.643l.796-.587a8.293 8.293 0 0 0-1.348-2.317l-.896.393a2.884 2.884 0 0 1-4.023-2.324l-.11-.976a8.988 8.988 0 0 0-1.333-.117ZM12 8.25a3.75 3.75 0 1 1 0 7.5 3.75 3.75 0 0 1 0-7.5Zm0 1.5a2.25 2.25 0 1 0 0 4.5 2.25 2.25 0 0 0 0-4.5Z" fill="#000000"></path></symbol><symbol viewBox="0 0 24 24" id="fluent-icons-SplitHorizontal"><path d="M21.25 12.5a.75.75 0 0 0 0-1.5H2.75a.75.75 0 0 0 0 1.5h18.5ZM20 4.25A2.25 2.25 0 0 0 17.75 2H6.25A2.25 2.25 0 0 0 4 4.25V10h1.5V4.25a.75.75 0 0 1 .75-.75h11.5a.75.75 0 0 1 .75.75V10H20V4.25Zm-14.5 15V13.5H4v5.75a2.25 2.25 0 0 0 2.25 2.25h11.5A2.25 2.25 0 0 0 20 19.25V13.5h-1.5v5.75a.75.75 0 0 1-.75.75H6.25a.75.75 0 0 1-.75-.75Z" fill="#000000"></path></symbol><symbol viewBox="0 0 24 24" id="fluent-icons-SplitVertical"><path d="M12.5 2.75a.75.75 0 0 0-1.5 0v18.5a.75.75 0 0 0 1.5 0V2.75ZM4.25 4A2.25 2.25 0 0 0 2 6.25v11.5A2.25 2.25 0 0 0 4.25 20H10v-1.5H4.25a.75.75 0 0 1-.75-.75V6.25a.75.75 0 0 1 .75-.75H10V4H4.25Zm15 14.5H13.5V20h5.75a2.25 2.25 0 0 0 2.25-2.25V6.25A2.25 2.25 0 0 0 19.25 4H13.5v1.5h5.75a.75.75 0 0 1 .75.75v11.5a.75.75 0 0 1-.75.75Z" fill="#000000"></path></symbol><symbol viewBox="0 0 24 24" id="fluent-icons-TableSimple"><path d="M3 6.25A3.25 3.25 0 0 1 6.25 3h11.5A3.25 3.25 0 0 1 21 6.25v11.5A3.25 3.25 0 0 1 17.75 21H6.25A3.25 3.25 0 0 1 3 17.75V6.25ZM6.25 4.5A1.75 1.75 0 0 0 4.5 6.25v5h6.75V4.5h-5Zm5 8.25H4.5v5c0 .966.784 1.75 1.75 1.75h5v-6.75Zm1.5 0v6.75h5a1.75 1.75 0 0 0 1.75-1.75v-5h-6.75Zm6.75-1.5v-5a1.75 1.75 0 0 0-1.75-1.75h-5v6.75h6.75Z" fill="#000000"></path></symbol><symbol viewBox="0 0 24 24" id="fluent-icons-TableStackBelow"><path d="M3.75 15.5a.75.75 0 0 1-.75-.75v-8.5A3.25 3.25 0 0 1 6.25 3h11.5A3.25 3.25 0 0 1 21 6.25v8.5a.75.75 0 0 1-.75.75H3.75ZM10 14h4v-4h-4v4Zm0-5.5h4v-4h-4v4Zm5.5 5.5h4v-4h-4v4Zm0-5.5h4V6.25a1.75 1.75 0 0 0-1.75-1.75H15.5v4Zm-7-4H6.25A1.75 1.75 0 0 0 4.5 6.25V8.5h4v-4Zm-4 9.5h4v-4h-4v4ZM3.75 19.5a.75.75 0 0 0 0 1.5h16.5a.75.75 0 0 0 0-1.5H3.75Z" fill="#000000"></path></symbol></svg>